<?xml version="1.0" encoding="utf-8"?>
<!-- Generator: Adobe Illustrator 13.0.0, SVG Export Plug-In . SVG Version: 6.00 Build 14948)  -->
<!DOCTYPE svg PUBLIC "-//W3C//DTD SVG 1.1//EN" "http://www.w3.org/Graphics/SVG/1.1/DTD/svg11.dtd">
<svg version="1.1" id="Layer_1" xmlns="http://www.w3.org/2000/svg" xmlns:xlink="http://www.w3.org/1999/xlink" x="0px" y="0px"
	 width="111.645px" height="34px" viewBox="0 0 111.645 34" enable-background="new 0 0 111.645 34" xml:space="preserve">
<path fill="#920000" d="M58.163,0c-9.374,0-17.002,7.626-17.002,17s7.627,17,17.002,17s16.999-7.625,16.999-17
	C75.163,7.626,67.536,0,58.163,0z"/>
<path fill="#FF2020" d="M58.163,1.469c-2.73,0-5.055,4.374-5.888,10.452c-0.026,0.194-0.053,0.393-0.074,0.593
	c-0.114,0.957-0.192,1.951-0.23,2.975c-0.018,0.469-0.024,0.942-0.024,1.421c0,0.48,0.011,0.955,0.024,1.421
	c0.039,1.024,0.119,2.021,0.23,2.976c1.28,0.166,2.651,0.278,4.085,0.332c0.616,0.024,1.242,0.036,1.883,0.036
	c0.637,0,1.263-0.014,1.878-0.039c1.435-0.053,2.804-0.163,4.085-0.329c0.142-0.019,0.28-0.039,0.42-0.06
	c5.34-0.75,9.051-2.408,9.051-4.338C73.603,8.381,66.689,1.469,58.163,1.469z"/>
<path fill="#FFFFFF" d="M64.55,11.891c-0.157-0.226-0.32-0.442-0.498-0.65c-1.416-1.67-3.522-2.731-5.884-2.731
	c-0.771,0-1.447,1.171-1.883,2.99c-0.176,0.726-0.311,1.554-0.399,2.452c-0.067,0.72-0.104,1.486-0.104,2.278
	s0.035,1.56,0.104,2.276c0.725,0.068,1.489,0.105,2.282,0.105c0.788,0,1.553-0.037,2.275-0.105c1.582-0.148,2.951-0.455,3.919-0.855
	c0.956-0.395,1.522-0.888,1.522-1.42C65.883,14.621,65.393,13.127,64.55,11.891z"/>
<g>
	<path fill="#F5E1EC" stroke="#000000" stroke-width="0.25" d="M5.763,12.793c0.529,0,1.077,0.043,1.646,0.125
		C7.973,13,8.416,13.109,8.732,13.246c0.184,0.075,0.308,0.174,0.375,0.294c0.067,0.121,0.103,0.28,0.103,0.478v1.064
		c-0.438-0.06-0.926-0.117-1.462-0.17c-0.54-0.052-1.095-0.079-1.666-0.079c-0.686,0-1.255,0.093-1.726,0.283
		c-0.469,0.188-0.847,0.509-1.133,0.963c-0.287,0.454-0.492,1.062-0.612,1.826c-0.116,0.763-0.182,1.717-0.182,2.865
		c0,1.27,0.074,2.307,0.226,3.104c0.151,0.803,0.375,1.426,0.671,1.871c0.294,0.445,0.668,0.752,1.12,0.918
		c0.454,0.168,0.99,0.248,1.609,0.248c0.639,0,1.188-0.037,1.655-0.113c0.468-0.074,0.827-0.112,1.064-0.112
		c0.377,0,0.566,0.178,0.566,0.541v1.108c-0.441,0.166-0.967,0.314-1.58,0.443c-0.612,0.129-1.318,0.193-2.119,0.193
		c-0.998,0-1.851-0.152-2.561-0.453C2.37,28.217,1.785,27.74,1.325,27.08c-0.464-0.658-0.799-1.498-1.01-2.518
		C0.104,23.541,0,22.317,0,20.879c0-1.449,0.104-2.688,0.316-3.719c0.211-1.025,0.543-1.865,1.01-2.516
		c0.46-0.65,1.053-1.122,1.777-1.417C3.836,12.94,4.72,12.793,5.763,12.793z"/>
	<path fill="#F5E1EC" stroke="#000000" stroke-width="0.25" d="M15.758,29c-1.71,0-2.946-0.484-3.707-1.453
		c-0.764-0.967-1.144-2.498-1.144-4.6c0-2.086,0.38-3.613,1.144-4.58c0.763-0.965,1.998-1.449,3.707-1.449s2.944,0.484,3.708,1.449
		c0.762,0.971,1.144,2.494,1.144,4.58c0,2.102-0.382,3.633-1.144,4.6C18.701,28.516,17.467,29,15.758,29z M18.298,22.947
		c0-0.816-0.049-1.496-0.147-2.039c-0.099-0.545-0.249-0.979-0.448-1.305c-0.207-0.324-0.471-0.557-0.793-0.691
		c-0.326-0.137-0.708-0.203-1.146-0.203c-0.443,0-0.823,0.068-1.146,0.203c-0.326,0.137-0.591,0.367-0.795,0.691
		c-0.202,0.326-0.354,0.76-0.447,1.305c-0.098,0.543-0.148,1.223-0.148,2.039c0,0.832,0.049,1.523,0.148,2.074
		c0.098,0.553,0.249,0.99,0.447,1.314c0.208,0.323,0.469,0.553,0.795,0.682c0.323,0.127,0.704,0.19,1.146,0.19
		c0.438,0,0.819-0.063,1.146-0.19c0.322-0.129,0.589-0.355,0.793-0.682c0.205-0.324,0.354-0.765,0.448-1.314
		C18.249,24.471,18.298,23.78,18.298,22.947z"/>
	<path fill="#F5E1EC" stroke="#000000" stroke-width="0.25" d="M28.34,17.121c0.302,0,0.506,0.049,0.611,0.146
		c0.104,0.1,0.157,0.229,0.157,0.396v1.521c-0.104-0.016-0.212-0.023-0.313-0.023c-0.109,0-0.207,0-0.297,0
		c-0.62,0-1.185,0.1-1.687,0.295c-0.506,0.197-0.979,0.529-1.417,0.998v8.273h-1.747c-0.361,0-0.543-0.174-0.543-0.521V17.19h1.382
		c0.2,0,0.346,0.042,0.434,0.125c0.09,0.084,0.161,0.229,0.206,0.44l0.091,0.996c0.348-0.422,0.793-0.801,1.337-1.133
		C27.091,17.287,27.688,17.121,28.34,17.121z"/>
	<path fill="#F5E1EC" stroke="#000000" stroke-width="0.25" d="M32.6,23.809c0.03,0.604,0.1,1.119,0.204,1.541
		c0.108,0.425,0.283,0.769,0.535,1.031c0.25,0.267,0.586,0.457,1.01,0.578c0.423,0.121,0.969,0.182,1.631,0.182
		c0.59,0,1.126-0.028,1.609-0.09c0.484-0.061,0.816-0.092,0.998-0.092c0.347,0,0.521,0.166,0.521,0.496v0.953
		c-0.361,0.154-0.856,0.285-1.486,0.396c-0.628,0.117-1.348,0.17-2.162,0.17c-0.864,0-1.609-0.105-2.244-0.316
		s-1.156-0.555-1.575-1.029c-0.416-0.479-0.726-1.096-0.921-1.856c-0.196-0.763-0.294-1.689-0.294-2.779
		c0-1.086,0.098-2.016,0.294-2.787c0.196-0.77,0.497-1.399,0.896-1.893c0.4-0.49,0.896-0.847,1.485-1.064
		c0.59-0.219,1.277-0.329,2.062-0.329c0.876,0,1.594,0.125,2.151,0.375c0.562,0.25,0.998,0.586,1.314,1.01s0.537,0.918,0.657,1.483
		c0.117,0.566,0.182,1.177,0.182,1.824c0,0.438-0.024,0.86-0.071,1.271c-0.045,0.407-0.104,0.719-0.181,0.93L32.6,23.809
		L32.6,23.809z M37.383,22.199c0.02-0.148,0.025-0.264,0.025-0.34c0-0.074,0-0.174,0-0.295c0-0.967-0.147-1.695-0.443-2.188
		c-0.296-0.49-0.873-0.736-1.734-0.736c-0.515,0-0.938,0.084-1.27,0.25c-0.333,0.166-0.6,0.399-0.793,0.703
		c-0.197,0.303-0.336,0.678-0.419,1.123c-0.08,0.442-0.132,0.938-0.147,1.483L37.383,22.199L37.383,22.199z"/>
</g>
<g>
	<path fill="#F5E1EC" stroke="#000000" stroke-width="0.25" d="M84.573,28.478c-0.106-0.68-0.218-1.332-0.329-1.961
		c-0.117-0.627-0.231-1.258-0.355-1.893H78.83c-0.154,0.725-0.291,1.459-0.416,2.199c-0.119,0.739-0.237,1.465-0.348,2.176h-1.743
		c-0.332,0-0.492-0.189-0.478-0.566c0.045-0.453,0.113-0.898,0.205-1.34c0.272-1.463,0.58-2.865,0.912-4.203
		c0.335-1.336,0.676-2.59,1.021-3.762c0.354-1.172,0.701-2.248,1.063-3.231c0.354-0.98,0.688-1.851,1.014-2.607h2.266
		c0.183,0,0.315,0.039,0.406,0.113c0.092,0.076,0.166,0.196,0.229,0.363c0.313,0.771,0.664,1.693,1.043,2.766
		s0.754,2.267,1.12,3.583c0.372,1.313,0.728,2.723,1.06,4.229c0.334,1.502,0.621,3.055,0.864,4.656H85.12
		C84.802,29,84.62,28.825,84.573,28.478z M81.347,15.24c-0.355,1.074-0.73,2.233-1.113,3.479c-0.384,1.248-0.748,2.596-1.095,4.047
		h4.463c-0.349-1.451-0.718-2.799-1.104-4.047C82.11,17.474,81.727,16.314,81.347,15.24z"/>
	<path fill="#F5E1EC" stroke="#000000" stroke-width="0.25" d="M89.79,29c-0.361,0-0.544-0.175-0.544-0.521V13.563
		c0.665-0.122,1.413-0.223,2.241-0.307c0.832-0.083,1.61-0.125,2.341-0.125c1.822,0,3.173,0.394,4.032,1.179
		c0.861,0.785,1.292,2.102,1.292,3.945c0,0.938-0.115,1.729-0.351,2.381c-0.235,0.647-0.564,1.179-0.987,1.586
		c-0.422,0.408-0.938,0.707-1.552,0.896c-0.612,0.188-1.289,0.281-2.028,0.281c-0.394,0-0.809-0.024-1.247-0.078
		c-0.438-0.055-0.898-0.133-1.384-0.237V29H89.79L89.79,29z M91.603,21.269c0.395,0.078,0.783,0.141,1.182,0.193
		c0.393,0.055,0.779,0.08,1.177,0.08c0.482,0,0.908-0.049,1.267-0.148c0.363-0.096,0.661-0.27,0.896-0.52
		c0.233-0.25,0.412-0.586,0.537-1.01c0.115-0.424,0.177-0.961,0.177-1.609c0-0.695-0.064-1.254-0.192-1.677
		c-0.125-0.424-0.315-0.752-0.577-0.987c-0.257-0.233-0.568-0.392-0.939-0.476c-0.37-0.082-0.785-0.125-1.254-0.125
		c-0.453,0-0.881,0.016-1.284,0.047c-0.4,0.029-0.729,0.067-0.983,0.113v6.118H91.603z"/>
	<path fill="#F5E1EC" stroke="#000000" stroke-width="0.25" d="M102.278,29c-0.359,0-0.543-0.175-0.543-0.521V13.563
		c0.664-0.122,1.412-0.223,2.242-0.307c0.829-0.083,1.611-0.125,2.336-0.125c1.829,0,3.173,0.394,4.038,1.179
		c0.862,0.785,1.293,2.102,1.293,3.945c0,0.938-0.119,1.729-0.354,2.381c-0.23,0.647-0.561,1.179-0.981,1.586
		c-0.421,0.408-0.94,0.707-1.553,0.896s-1.292,0.281-2.028,0.281c-0.396,0-0.809-0.024-1.251-0.078
		c-0.438-0.055-0.896-0.133-1.383-0.237V29H102.278L102.278,29z M104.092,21.269c0.393,0.078,0.786,0.141,1.18,0.193
		c0.395,0.055,0.784,0.08,1.181,0.08c0.48,0,0.904-0.049,1.27-0.148c0.362-0.096,0.661-0.27,0.896-0.52
		c0.233-0.25,0.411-0.586,0.531-1.01c0.121-0.424,0.184-0.961,0.184-1.609c0-0.695-0.063-1.254-0.191-1.677
		c-0.129-0.424-0.322-0.752-0.58-0.987c-0.26-0.233-0.568-0.392-0.938-0.476c-0.37-0.082-0.788-0.125-1.26-0.125
		c-0.452,0-0.882,0.016-1.279,0.047c-0.402,0.029-0.729,0.067-0.986,0.113v6.118H104.092z"/>
</g>
</svg>
