<?xml version="1.0" encoding="utf-8"?>
<!-- Generator: Adobe Illustrator 13.0.0, SVG Export Plug-In . SVG Version: 6.00 Build 14948)  -->
<!DOCTYPE svg PUBLIC "-//W3C//DTD SVG 1.1//EN" "http://www.w3.org/Graphics/SVG/1.1/DTD/svg11.dtd">
<svg version="1.1" id="Layer_1" xmlns="http://www.w3.org/2000/svg" xmlns:xlink="http://www.w3.org/1999/xlink" x="0px" y="0px"
	 width="44px" height="44px" viewBox="0 0 44 44" enable-background="new 0 0 44 44" xml:space="preserve">
<path fill="#0379A1" d="M21.602,0.5c-11.9,0-21.585,9.682-21.585,21.583c0,11.9,9.683,21.583,21.585,21.583
	s21.583-9.682,21.583-21.583C43.185,10.182,33.502,0.5,21.602,0.5z"/>
<path fill="#4AC2EA" d="M21.602,2.365c-3.466,0-6.417,5.554-7.474,13.27c-0.034,0.246-0.067,0.5-0.095,0.753
	c-0.146,1.214-0.244,2.477-0.293,3.777c-0.021,0.596-0.031,1.195-0.031,1.803c0,0.61,0.012,1.212,0.031,1.804
	c0.051,1.301,0.151,2.564,0.293,3.777c1.626,0.21,3.367,0.354,5.186,0.421c0.784,0.033,1.579,0.047,2.391,0.047
	c0.808,0,1.603-0.018,2.385-0.049c1.82-0.067,3.56-0.209,5.187-0.419c0.18-0.022,0.355-0.05,0.532-0.074
	c6.781-0.953,11.491-3.058,11.491-5.507C41.204,11.141,32.427,2.365,21.602,2.365z"/>
<path fill="#FFFFFF" d="M29.711,15.597c-0.2-0.287-0.407-0.561-0.633-0.825c-1.798-2.12-4.473-3.467-7.47-3.467
	c-0.979,0-1.837,1.486-2.391,3.796c-0.223,0.921-0.393,1.973-0.507,3.113c-0.085,0.914-0.131,1.887-0.131,2.892
	c0,1.006,0.045,1.979,0.131,2.891c0.92,0.087,1.891,0.134,2.898,0.134c1.001,0,1.972-0.047,2.89-0.134
	c2.009-0.188,3.747-0.578,4.976-1.087c1.214-0.5,1.933-1.127,1.933-1.803C31.402,19.063,30.782,17.166,29.711,15.597z"/>
</svg>
